<svg width="19" height="19" viewBox="0 0 19 19" fill="none" xmlns="http://www.w3.org/2000/svg">
<g clip-path="url(#clip0)">
<path d="M0.333374 16.9977C0.333374 12.1837 0.333374 7.37698 0.333374 2.56302C0.333374 2.51972 0.347464 2.48363 0.354509 2.44033C0.481319 1.89181 0.896975 1.58869 1.42535 1.54538C2.01713 1.49486 2.623 1.51651 3.21478 1.53095C3.27819 1.53095 3.39091 1.71138 3.39091 1.80521C3.41205 2.33207 3.39796 2.86615 3.39796 3.39302C3.405 4.23744 3.93338 4.82205 4.69424 4.83648C5.75804 4.85092 6.32868 4.36736 6.34982 3.4291C6.36391 2.90224 6.35686 2.36816 6.34982 1.84129C6.34277 1.61756 6.40618 1.51651 6.64571 1.51651C8.49855 1.52373 10.3514 1.52373 12.2113 1.51651C12.4297 1.51651 12.5001 1.61034 12.4931 1.81964C12.486 2.33929 12.486 2.85172 12.4931 3.37136C12.5001 3.87658 12.6692 4.31683 13.0989 4.60553C13.5639 4.92309 14.0782 4.89422 14.5925 4.76431C15.149 4.61996 15.4379 4.22301 15.4449 3.63841C15.452 3.03937 15.452 2.43311 15.4449 1.83408C15.4379 1.60312 15.5224 1.5093 15.7479 1.51651C16.1706 1.53095 16.5933 1.51651 17.016 1.52373C17.8543 1.53095 18.3334 2.00007 18.3334 2.86615C18.3404 7.49246 18.3404 12.126 18.3334 16.7523C18.3334 17.1998 18.2348 17.6472 17.8191 17.871C17.5655 18.0081 17.2414 18.0586 16.9455 18.0586C11.8872 18.0658 6.82888 18.0658 1.77056 18.0658C1.65079 18.0658 1.53807 18.0658 1.41831 18.0586C0.94629 18.0297 0.572904 17.7266 0.439049 17.2647C0.410869 17.1709 0.368599 17.0843 0.333374 16.9977ZM9.3369 17.0193C11.8167 17.0193 14.2895 17.0193 16.7694 17.0193C17.2696 17.0193 17.2696 17.0193 17.2696 16.4925C17.2696 13.1869 17.2696 9.87417 17.2696 6.56864C17.2696 6.09229 17.2625 6.07786 16.7976 6.07786C11.8308 6.07786 6.8641 6.07786 1.89737 6.07786C1.43944 6.07786 1.4324 6.09229 1.4324 6.56864C1.4324 9.87417 1.4324 13.1869 1.4324 16.4925C1.4324 17.0121 1.4324 17.0193 1.93964 17.0193C4.40539 17.0193 6.87115 17.0193 9.3369 17.0193Z" fill="#FF9029"/>
<path d="M4.09554 2.10123C4.09554 2.53427 4.09554 2.96731 4.09554 3.40035C4.10258 3.88391 4.39847 4.18704 4.87049 4.17982C5.32842 4.17982 5.64544 3.88391 5.64544 3.42922C5.65249 2.54149 5.65953 1.64654 5.64544 0.758812C5.6384 0.289686 5.35659 0.0659488 4.84231 0.0659488C4.34916 0.0731662 4.10258 0.296903 4.09554 0.766029C4.08849 1.2135 4.09554 1.66098 4.09554 2.10123ZM14.7476 2.10845C14.7476 1.65376 14.7546 1.19907 14.7476 0.73716C14.7405 0.318555 14.501 0.0803835 14.0854 0.0587315C13.5288 0.0298622 13.2118 0.231947 13.1977 0.686639C13.1766 1.62489 13.1766 2.56314 13.1977 3.49418C13.2047 3.92722 13.5288 4.13652 14.0572 4.12208C14.501 4.10765 14.7405 3.8767 14.7476 3.43644C14.7546 2.99618 14.7476 2.54871 14.7476 2.10845Z" fill="#FF9029"/>
<path d="M4.09554 2.10137C4.09554 1.65389 4.08849 1.21364 4.09554 0.766162C4.10258 0.297036 4.34916 0.0732993 4.84231 0.066082C5.3566 0.0588647 5.6384 0.289819 5.64544 0.758945C5.65953 1.64668 5.65249 2.54162 5.64544 3.42935C5.6384 3.88405 5.32137 4.17996 4.87049 4.17996C4.39847 4.17996 4.09554 3.88405 4.09554 3.40048C4.09554 2.96745 4.09554 2.53441 4.09554 2.10137Z" fill="#FF9029"/>
<path d="M14.7475 2.10776C14.7475 2.55524 14.7545 2.9955 14.7475 3.44297C14.7404 3.88323 14.5009 4.11418 14.057 4.12861C13.5357 4.15027 13.2116 3.94096 13.1976 3.50071C13.1764 2.56246 13.1764 1.6242 13.1976 0.693169C13.2116 0.238478 13.5287 0.036393 14.0852 0.0652623C14.5009 0.0869142 14.7404 0.317869 14.7475 0.743691C14.7545 1.19116 14.7475 1.65307 14.7475 2.10776Z" fill="#FF9029"/>
<path d="M11.0133 7.70947C11.281 7.70947 11.5557 7.71668 11.8235 7.70947C12.0418 7.70225 12.1475 7.78886 12.1405 8.02703C12.1334 8.48172 12.1334 8.93641 12.1405 9.39832C12.1405 9.63649 12.0489 9.75197 11.8094 9.75197C11.2739 9.74475 10.7315 9.74475 10.1961 9.75197C9.94948 9.75919 9.86494 9.63649 9.87198 9.39832C9.87903 8.95085 9.88607 8.51059 9.87198 8.06312C9.86494 7.80329 9.94948 7.68782 10.2172 7.70225C10.4708 7.7239 10.7385 7.70947 11.0133 7.70947Z" fill="#FF9029"/>
<path d="M14.3448 9.74484C14.1123 9.74484 13.8727 9.7304 13.6403 9.74484C13.3584 9.76649 13.2316 9.66544 13.2387 9.36232C13.2528 8.92928 13.2528 8.49624 13.2387 8.0632C13.2316 7.80337 13.3091 7.6879 13.5768 7.69511C14.1052 7.70955 14.6336 7.70955 15.1549 7.69511C15.4086 7.6879 15.5213 7.7745 15.5142 8.04876C15.5001 8.4818 15.5001 8.91484 15.5142 9.34788C15.5213 9.65101 15.3874 9.75927 15.1127 9.74484C14.859 9.73762 14.5984 9.74484 14.3448 9.74484Z" fill="#FF9029"/>
<path d="M4.22384 12.718C3.94204 12.718 3.66024 12.7108 3.37843 12.718C3.18822 12.7252 3.09663 12.6386 3.10368 12.4437C3.11072 11.9529 3.11072 11.4622 3.10368 10.9642C3.10368 10.7404 3.2164 10.6755 3.41366 10.6755C3.94908 10.6827 4.49155 10.6827 5.02697 10.6755C5.25945 10.6755 5.37217 10.7765 5.37217 11.0219C5.36513 11.4766 5.36513 11.9313 5.37217 12.3932C5.37922 12.6169 5.28763 12.7252 5.06219 12.718C4.78744 12.7108 4.50564 12.718 4.22384 12.718Z" fill="#FF9029"/>
<path d="M7.61169 12.7176C7.32989 12.7176 7.04809 12.7104 6.76629 12.7176C6.55494 12.7248 6.47745 12.6238 6.47745 12.4145C6.48449 11.9309 6.48449 11.4546 6.47745 10.971C6.47745 10.7545 6.57608 10.6679 6.78038 10.6751C7.32989 10.6823 7.8794 10.6751 8.42891 10.6751C8.64731 10.6751 8.74594 10.7834 8.74594 11.0071C8.74594 11.4762 8.7389 11.9454 8.74594 12.4145C8.74594 12.631 8.65435 12.7176 8.45005 12.7176C8.17529 12.7176 7.89349 12.7176 7.61169 12.7176Z" fill="#FF9029"/>
<path d="M11.0058 12.718C10.724 12.718 10.4422 12.7108 10.1604 12.718C9.95609 12.7252 9.8645 12.6386 9.8645 12.4221C9.87155 11.9457 9.87155 11.4622 9.8645 10.9786C9.8645 10.7693 9.94904 10.6755 10.1604 10.6755C10.7099 10.6827 11.2594 10.6755 11.8089 10.6755C12.0273 10.6755 12.133 10.7765 12.133 11.0003C12.133 11.4694 12.126 11.9385 12.133 12.4076C12.1401 12.6458 12.0203 12.7252 11.8089 12.718C11.5412 12.7108 11.2735 12.718 11.0058 12.718Z" fill="#FF9029"/>
<path d="M14.3668 12.7179C14.085 12.7179 13.8032 12.7107 13.5214 12.7179C13.3312 12.7251 13.2467 12.6385 13.2467 12.4364C13.2537 11.9457 13.2326 11.4549 13.2608 10.9641C13.2678 10.8631 13.4298 10.6971 13.5285 10.6971C14.0921 10.6682 14.6557 10.6682 15.2122 10.6971C15.3179 10.7043 15.494 10.8847 15.5011 10.993C15.5363 11.4693 15.5152 11.9529 15.5152 12.4292C15.5152 12.653 15.4024 12.7179 15.2052 12.7179C14.9304 12.7179 14.6486 12.7179 14.3668 12.7179Z" fill="#FF9029"/>
<path d="M4.23558 15.7413C3.93969 15.7413 3.65085 15.7629 3.35496 15.7268C3.26337 15.7196 3.11543 15.568 3.10838 15.4814C3.08725 14.9762 3.08725 14.471 3.10838 13.973C3.11543 13.8864 3.27042 13.7276 3.362 13.7276C3.93265 13.706 4.51034 13.7204 5.08098 13.7132C5.29938 13.7132 5.36983 13.8287 5.36983 14.0308C5.36983 14.4999 5.36278 14.969 5.36983 15.4381C5.36983 15.6763 5.25711 15.7557 5.03871 15.7485C4.771 15.734 4.50329 15.7413 4.23558 15.7413Z" fill="#FF9029"/>
<path d="M7.61915 15.7426C7.33735 15.7426 7.05555 15.7354 6.77375 15.7426C6.5624 15.7498 6.47786 15.656 6.4849 15.4467C6.49195 14.9703 6.49195 14.4867 6.4849 14.0032C6.4849 13.7867 6.58353 13.7073 6.78784 13.7073C7.33735 13.7145 7.88686 13.7145 8.43637 13.7073C8.66181 13.7073 8.76044 13.8011 8.7534 14.0248C8.74635 14.4795 8.74635 14.9342 8.7534 15.3961C8.76044 15.6343 8.66886 15.7498 8.42228 15.7426C8.15457 15.7354 7.88686 15.7426 7.61915 15.7426Z" fill="#FF9029"/>
<path d="M10.9927 15.7426C10.732 15.7426 10.4784 15.7281 10.2178 15.7498C9.96414 15.7642 9.85142 15.6848 9.85846 15.4034C9.87255 14.9487 9.86551 14.494 9.85846 14.0321C9.85846 13.8083 9.93596 13.7073 10.1684 13.7073C10.718 13.7145 11.2675 13.7145 11.817 13.7073C12.0142 13.7073 12.127 13.7794 12.127 13.996C12.127 14.4795 12.127 14.9559 12.127 15.4394C12.127 15.6487 12.0354 15.7426 11.824 15.7426C11.5563 15.7353 11.2745 15.7426 10.9927 15.7426Z" fill="#FF9029"/>
<path d="M14.3678 15.7431C14.1001 15.7431 13.8253 15.7359 13.5576 15.7431C13.3322 15.7503 13.2406 15.6709 13.2406 15.4327C13.2476 14.9636 13.2476 14.4945 13.2406 14.0254C13.2406 13.7944 13.3251 13.7006 13.5576 13.7078C14.093 13.715 14.6355 13.715 15.1709 13.7078C15.4034 13.7006 15.5161 13.7872 15.5161 14.0398C15.5091 14.4945 15.5091 14.9492 15.5161 15.4111C15.5232 15.6637 15.4105 15.7575 15.1709 15.7431C14.9103 15.7359 14.6355 15.7431 14.3678 15.7431Z" fill="#FF9029"/>
</g>
<defs>
<clipPath id="clip0">
<rect width="18" height="18" fill="white" transform="translate(0.333374 0.0577393)"/>
</clipPath>
</defs>
</svg>
