<?xml version="1.0" encoding="utf-8"?>
<!-- Generator: Adobe Illustrator 21.0.2, SVG Export Plug-In . SVG Version: 6.00 Build 0)  -->
<svg version="1.1" id="Capa_1" xmlns="http://www.w3.org/2000/svg" xmlns:xlink="http://www.w3.org/1999/xlink" x="0px" y="0px"
	 viewBox="0 0 68 68" style="enable-background:new 0 0 68 68;" xml:space="preserve">
<g>
	<path style="fill:#FF9014;" d="M65.1,30.3c-0.5-0.8-1.5-1.3-2.6-1.2c-1.1,0-2.1,0.1-3.2,0.3c-5,1-9,3.7-11.8,7.8
		c-0.1,0.2-0.1,0.2-0.3,0.2c-3.2,0-6.4,0-9.6,0l-2.7,0l-3.6,0c-2.8,0-5.7,0-8.5,0c-2.9,0-5.4,1-7.4,3c-3.3,3.3-6.6,6.5-9.8,9.8
		L3,52.9c-1.2,1.3-1.2,2.8,0,4.1c3.3,3.3,6.7,6.7,10,10c0.7,0.7,1.4,1.1,2.1,1.1c0.7,0,1.4-0.4,2.2-1.1c2-2,4.1-4.1,6.1-6.1
		c0.2-0.2,0.3-0.3,0.5-0.5c0.3-0.4,0.6-0.7,0.9-0.8c0.3-0.1,0.7-0.1,1.2-0.1c0.2,0,0.4,0,0.7,0l2.3,0c4.3,0,8.5,0,12.8,0
		c0,0,0,0,0,0c4,0,7.5-1.3,10.4-4c1.7-1.6,2.8-3.4,3.7-5.1c1.8-3.5,3.6-7,5.5-10.5c1.2-2.3,2.4-4.5,3.6-6.8
		C65.6,32.2,65.6,31.1,65.1,30.3z M44.3,43.3c-0.3,0.5-0.5,1-0.8,1.5c-0.4,0.7-0.9,1-1.7,1c0,0,0,0,0,0c-4.4,0-8.8,0-13.2,0l-0.6,0
		c-1.1,0-2,0.5-2.5,1.4c-0.5,0.8-0.4,1.8,0.1,2.6c0.5,0.9,1.4,1.3,2.5,1.3c0,0,0,0,0,0l5.3,0c2.9,0,5.7,0,8.6,0
		c0.6,0,1.2-0.1,1.8-0.2c1.9-0.5,3.3-1.7,4.3-3.5c0.3-0.6,0.6-1.1,0.9-1.7c1-1.9,2.1-4,3.3-5.8c1.2-2,3.1-3.5,5.5-4.4l-2.7,5.2
		c-0.5,0.9-0.9,1.8-1.4,2.6c-1,1.9-2,3.8-3,5.7c-1.6,3-4.1,4.7-7.5,5.2c-0.6,0.1-1.2,0.1-1.7,0.1c-5.8,0-11.6,0-17.4,0c0,0,0,0,0,0
		c-1.1,0-1.9,0.3-2.6,1.1c-1.3,1.4-2.7,2.7-4,4.1l-2.1,2.1c0,0-0.1,0.1-0.1,0.1l-6.6-6.7l2.9-2.9c2.4-2.4,4.8-4.8,7.2-7.2
		c1.3-1.3,2.8-1.9,4.7-1.9c0,0,0,0,0,0c5.2,0,10.4,0,15.5,0l5.6,0L44.3,43.3z"/>
	<g>
		<path style="fill:#FF9014;" d="M43,0H23.3c-3.6,0-6.6,2.9-6.6,6.6v19.8c0,3.6,2.9,6.6,6.6,6.6H43c3.6,0,6.6-2.9,6.6-6.6V6.6
			C49.6,2.9,46.7,0,43,0z M33.1,13.5l3.6,4.5V4.9H43c0.9,0,1.7,0.8,1.7,1.7v19.8c0,0.9-0.8,1.7-1.7,1.7H23.3c-0.9,0-1.7-0.8-1.7-1.7
			V6.6c0-0.9,0.8-1.7,1.7-1.7h6.3v13.2L33.1,13.5z"/>
	</g>
</g>
</svg>
