<?xml version="1.0" encoding="utf-8"?>
<!-- Generator: Adobe Illustrator 21.0.2, SVG Export Plug-In . SVG Version: 6.00 Build 0)  -->
<svg version="1.1" id="Capa_1" xmlns="http://www.w3.org/2000/svg" xmlns:xlink="http://www.w3.org/1999/xlink" x="0px" y="0px"
	 viewBox="0 0 68 68" style="enable-background:new 0 0 68 68;" xml:space="preserve">
<g>
	<path style="fill:#FFFFFF;" d="M61.8,24.1c0-0.1-0.1-0.3-0.1-0.4s0-0.1-0.1-0.2s-0.1-0.3-0.2-0.4c0,0,0-0.1-0.1-0.1
		c-0.1-0.2-0.2-0.3-0.4-0.5L39.3,0.9c-0.1-0.1-0.3-0.3-0.5-0.4c0,0-0.1,0-0.1-0.1c-0.1-0.1-0.3-0.2-0.4-0.2c-0.1,0-0.1,0-0.2-0.1
		C38,0.1,37.8,0,37.7,0c-0.2,0-0.4,0-0.6,0H15.5C13,0,10.7,1,8.9,2.7C7.2,4.5,6.2,6.8,6.2,9.3v49.5c0,2.5,1,4.8,2.7,6.6
		c1.8,1.8,4.1,2.7,6.6,2.7h37.1c2.5,0,4.8-1,6.6-2.7c1.8-1.8,2.7-4.1,2.7-6.6v-34C61.8,24.5,61.8,24.3,61.8,24.1z M40.2,10.6
		l11.1,11.1H40.2V10.6z M54.8,60.9c-0.6,0.6-1.4,0.9-2.2,0.9H15.5c-0.8,0-1.6-0.3-2.2-0.9c-0.6-0.6-0.9-1.4-0.9-2.2V9.3
		c0-0.8,0.3-1.6,0.9-2.2c0.6-0.6,1.4-0.9,2.2-0.9H34v18.6c0,1.7,1.4,3.1,3.1,3.1h18.6v30.9C55.7,59.6,55.3,60.4,54.8,60.9z"/>
	<path style="fill:#FFFFFF;" d="M32,43.5c-1.1-1.1-2.5-1.6-4-1.6h-1.4v-5.1h4.3c0.8,0,1.5-0.7,1.5-1.5s-0.7-1.5-1.5-1.5h-4.3v-3.1
		c0-0.8-0.7-1.5-1.5-1.5s-1.5,0.7-1.5,1.5v3.1h-1.4c-1.5,0-2.9,0.6-4,1.6c-1.1,1.1-1.6,2.5-1.6,4s0.6,2.9,1.6,4
		c1.1,1.1,2.5,1.6,4,1.6h1.4v5h-5.4c-0.8,0-1.5,0.7-1.5,1.5s0.7,1.5,1.5,1.5h5.4v3.1c0,0.8,0.7,1.5,1.5,1.5s1.5-0.7,1.5-1.5V53H28
		c1.5,0,2.9-0.6,4-1.6c1.1-1.1,1.6-2.5,1.6-4C33.6,46,33,44.6,32,43.5z M23.5,41.9h-1.4c-0.7,0-1.3-0.3-1.8-0.7
		c-0.5-0.5-0.7-1.1-0.7-1.8s0.3-1.3,0.7-1.8c0.5-0.5,1.1-0.7,1.8-0.7h1.4V41.9z M30.5,47.5c0,0.7-0.3,1.3-0.7,1.8
		C29.3,49.7,28.7,50,28,50h-1.4v-5.1H28c0.7,0,1.3,0.3,1.8,0.7C30.3,46.2,30.5,46.8,30.5,47.5z"/>
</g>
</svg>
