<?xml version="1.0" encoding="utf-8"?>
<!-- Generator: Adobe Illustrator 21.0.2, SVG Export Plug-In . SVG Version: 6.00 Build 0)  -->
<svg version="1.1" id="Capa_1" xmlns="http://www.w3.org/2000/svg" xmlns:xlink="http://www.w3.org/1999/xlink" x="0px" y="0px"
	 viewBox="0 0 68 68" style="enable-background:new 0 0 68 68;" xml:space="preserve">
<g>
	<path style="fill:#FF9014;" d="M38.9,54.7l-7.6,3.8V33l20.9-10.4v7.8c0.8-0.1,1.5-0.2,2.3-0.2c1,0,2,0.1,2.9,0.2v-8.9
		c0-1.5-0.4-2.9-1.2-4.1c-0.8-1.2-1.9-2.2-3.2-2.9L32.2,4.1c0,0,0,0,0,0c-2.2-1.1-4.8-1.1-7,0L14.6,9.4c-0.1,0-0.2,0.1-0.2,0.1
		l-10,5c-1.3,0.6-2.4,1.6-3.2,2.9C0.4,18.7,0,20.1,0,21.6v24.9c0,1.5,0.4,2.9,1.2,4.1c0.8,1.2,1.9,2.3,3.2,2.9l20.9,10.5
		c1.1,0.5,2.3,0.8,3.5,0.8c1.2,0,2.4-0.3,3.5-0.8l9.6-4.8C40.6,57.8,39.7,56.3,38.9,54.7z M27.6,8.8c0.4-0.2,0.8-0.3,1.2-0.3
		c0.4,0,0.8,0.1,1.2,0.3L49,18.3l-7.2,3.6L21.5,11.8L27.6,8.8z M26.1,58.5L6.7,48.8c-0.4-0.2-0.8-0.6-1.1-1
		c-0.3-0.4-0.4-0.9-0.4-1.4V22.5L26.1,33V58.5z M8.5,18.3l7.2-3.6L36,24.8l-7.2,3.6L8.5,18.3z"/>
	<path style="fill:#FF9014;" d="M54.6,34c-7.4,0-13.5,6-13.5,13.5c0,7.4,6,13.5,13.5,13.5S68,54.9,68,47.5C68,40,62,34,54.6,34z
		 M63.3,43.9L52.8,54.4c-0.3,0.3-0.7,0.4-1.1,0.4c-0.4,0-0.8-0.2-1.1-0.4l-4.8-4.8c-0.6-0.6-0.6-1.6,0-2.2c0.6-0.6,1.6-0.6,2.2,0
		l3.7,3.7l9.4-9.4c0.6-0.6,1.6-0.6,2.2,0C63.9,42.3,63.9,43.3,63.3,43.9z"/>
</g>
</svg>
