<?xml version="1.0" encoding="utf-8"?>
<!-- Generator: Adobe Illustrator 21.0.2, SVG Export Plug-In . SVG Version: 6.00 Build 0)  -->
<svg version="1.1" id="Capa_1" xmlns="http://www.w3.org/2000/svg" xmlns:xlink="http://www.w3.org/1999/xlink" x="0px" y="0px"
	 viewBox="0 0 68 68" style="enable-background:new 0 0 68 68;" xml:space="preserve">
<g>
	<path style="fill:#FFFFFF;" d="M48.6,62.5c-1.6,0-2.9-1.3-2.9-2.9v-5.7c0-2.3-1-4.5-2.5-6c-1.6-1.6-3.8-2.5-6-2.5H14.3
		c-2.3,0-4.4,0.9-6,2.5c-1.6,1.6-2.5,3.8-2.5,6v5.7c0,1.6-1.3,2.9-2.9,2.9S0,61.2,0,59.6v-5.7c0-3.8,1.5-7.4,4.2-10.1
		s6.2-4.2,10.1-4.2h22.8c3.8,0,7.4,1.5,10.1,4.2c2.7,2.7,4.2,6.2,4.2,10.1v5.7C51.4,61.2,50.1,62.5,48.6,62.5z"/>
	<path style="fill:#FFFFFF;" d="M25.7,34c-7.8,0-14.3-6.3-14.3-14.3S17.8,5.5,25.7,5.5S40,11.9,40,19.8S33.5,34,25.7,34z M25.7,11.2
		c-4.7,0-8.6,3.9-8.6,8.6s3.9,8.6,8.6,8.6s8.6-3.9,8.6-8.6S30.4,11.2,25.7,11.2z"/>
	<path style="fill:#FFFFFF;" d="M45.4,19.4c-5.2,5.2-5.2,13.5,0,18.7s13.5,5.2,18.7,0c5.2-5.2,5.2-13.5,0-18.7
		C59,14.2,50.6,14.2,45.4,19.4z M62,24.2l-4.5,4.5l4.5,4.5c0.6,0.6,0.6,1.6,0,2.3s-1.6,0.6-2.3,0L55.2,31l-4.5,4.5
		c-0.6,0.6-1.6,0.6-2.3,0s-0.6-1.6,0-2.3l4.5-4.5l-4.5-4.5c-0.6-0.6-0.6-1.6,0-2.3c0.6-0.6,1.6-0.6,2.3,0l4.5,4.5l4.5-4.5
		c0.6-0.6,1.6-0.6,2.3,0C62.6,22.6,62.6,23.6,62,24.2z"/>
</g>
</svg>
