<?xml version="1.0" encoding="utf-8"?>
<!-- Generator: Adobe Illustrator 21.0.2, SVG Export Plug-In . SVG Version: 6.00 Build 0)  -->
<svg version="1.1" id="Capa_1" xmlns="http://www.w3.org/2000/svg" xmlns:xlink="http://www.w3.org/1999/xlink" x="0px" y="0px"
	 viewBox="0 0 68 68" style="enable-background:new 0 0 68 68;" xml:space="preserve">
<g>
	<path style="fill:#FF9014;" d="M47.6,60.6c-1.5,0-2.7-1.2-2.7-2.7v-5.3c0-2.1-0.9-4.2-2.3-5.6c-1.5-1.5-3.5-2.3-5.6-2.3H15.7
		c-2.1,0-4.1,0.8-5.6,2.3c-1.5,1.5-2.3,3.5-2.3,5.6v5.3c0,1.5-1.2,2.7-2.7,2.7s-2.7-1.2-2.7-2.7v-5.3c0-3.5,1.4-6.9,3.9-9.4
		c2.5-2.5,5.8-3.9,9.4-3.9h21.2c3.5,0,6.9,1.4,9.4,3.9c2.5,2.5,3.9,5.8,3.9,9.4v5.3C50.2,59.4,49,60.6,47.6,60.6z"/>
	<path style="fill:#FF9014;" d="M26.3,34C19,34,13,28.1,13,20.7S19,7.5,26.3,7.5s13.3,6,13.3,13.3S33.6,34,26.3,34z M26.3,12.8
		c-4.4,0-8,3.6-8,8s3.6,8,8,8s8-3.6,8-8S30.7,12.8,26.3,12.8z"/>
	<path style="fill:#FF9014;" d="M44.7,20.4c-4.8,4.8-4.8,12.6,0,17.4c4.8,4.8,12.6,4.8,17.4,0s4.8-12.6,0-17.4
		C57.3,15.6,49.5,15.6,44.7,20.4z M60.1,24.9l-4.2,4.2l4.2,4.2c0.6,0.6,0.6,1.5,0,2.1c-0.6,0.6-1.5,0.6-2.1,0l-4.2-4.2l-4.2,4.2
		c-0.6,0.6-1.5,0.6-2.1,0c-0.6-0.6-0.6-1.5,0-2.1l4.2-4.2l-4.2-4.2c-0.6-0.6-0.6-1.5,0-2.1c0.6-0.6,1.5-0.6,2.1,0l4.2,4.2l4.2-4.2
		c0.6-0.6,1.5-0.6,2.1,0C60.7,23.4,60.7,24.4,60.1,24.9z"/>
</g>
</svg>
