<?xml version="1.0" encoding="utf-8"?>
<!-- Generator: Adobe Illustrator 21.0.2, SVG Export Plug-In . SVG Version: 6.00 Build 0)  -->
<svg version="1.1" id="Capa_1" xmlns="http://www.w3.org/2000/svg" xmlns:xlink="http://www.w3.org/1999/xlink" x="0px" y="0px"
	 viewBox="0 0 68 68" style="enable-background:new 0 0 68 68;" xml:space="preserve">
<g>
	<path style="fill:#FF9014;" d="M39.7,55.2L32,59V33l21.4-10.7v8c0.8-0.1,1.6-0.2,2.4-0.2c1,0,2,0.1,3,0.3v-9.1
		c0-1.5-0.4-2.9-1.2-4.2c-0.8-1.3-1.9-2.3-3.2-2.9L32.9,3.4c0,0,0,0,0,0c-2.2-1.1-4.9-1.1-7.1,0L14.9,8.9c-0.1,0-0.2,0.1-0.2,0.1
		L4.4,14.1c-1.3,0.7-2.5,1.7-3.2,2.9C0.4,18.3,0,19.8,0,21.3v25.4c0,1.5,0.4,3,1.2,4.2c0.8,1.3,1.9,2.3,3.2,3l21.4,10.7
		c1.1,0.6,2.3,0.8,3.6,0.8c1.2,0,2.5-0.3,3.6-0.8l9.8-4.9C41.5,58.3,40.5,56.8,39.7,55.2z M28.2,8.2C28.5,8,29,7.9,29.4,7.9
		c0.4,0,0.8,0.1,1.2,0.3L50.1,18l-7.4,3.7L22,11.3L28.2,8.2z M26.7,59.1L6.8,49.1c-0.4-0.2-0.8-0.6-1.1-1c-0.3-0.4-0.4-0.9-0.4-1.4
		V22.3L26.7,33V59.1z M8.7,18l7.4-3.7l20.7,10.4l-7.4,3.7L8.7,18z"/>
	<path style="fill:#FF9014;" d="M47.1,39.1c-4.8,4.8-4.8,12.6,0,17.4c4.8,4.8,12.6,4.8,17.4,0c4.8-4.8,4.8-12.6,0-17.4
		C59.7,34.3,51.9,34.3,47.1,39.1z M62.5,43.7l-4.2,4.2l4.2,4.2c0.6,0.6,0.6,1.5,0,2.1c-0.6,0.6-1.5,0.6-2.1,0l-4.2-4.2l-4.2,4.2
		c-0.6,0.6-1.5,0.6-2.1,0c-0.6-0.6-0.6-1.5,0-2.1l4.2-4.2L50,43.7c-0.6-0.6-0.6-1.5,0-2.1c0.6-0.6,1.5-0.6,2.1,0l4.2,4.2l4.2-4.2
		c0.6-0.6,1.5-0.6,2.1,0C63.1,42.2,63.1,43.1,62.5,43.7z"/>
</g>
</svg>
