<?xml version="1.0" encoding="utf-8"?>
<!-- Generator: Adobe Illustrator 21.0.2, SVG Export Plug-In . SVG Version: 6.00 Build 0)  -->
<svg version="1.1" id="Capa_1" xmlns="http://www.w3.org/2000/svg" xmlns:xlink="http://www.w3.org/1999/xlink" x="0px" y="0px"
	 viewBox="0 0 68 68" style="enable-background:new 0 0 68 68;" xml:space="preserve">
<g>
	<g id="pfeO8K.tif">
	</g>
	<g>
		<path style="fill:#FFFFFF;" d="M67.2,37.4l-6.5-6.5c-0.5-0.5-1.2-0.8-1.9-0.8h-5.9V22c0-1.5-1.2-2.8-2.8-2.8H38.4l0.1,0.6
			c0.1,0.7,0.1,1.5,0.1,2.2s0,1.4-0.1,2.1l-0.1,0.6h9v22.6h-27v-4.7l-0.6,0.1c-1.4,0.1-2.8,0.1-4.2,0L15,42.6v7.5
			c0,1.5,1.2,2.8,2.8,2.8h2c-0.3,0.9-0.5,1.8-0.5,2.7c0,4.5,3.7,8.2,8.2,8.2s8.2-3.7,8.2-8.2c0-0.9-0.2-1.8-0.5-2.7h12.7
			c-0.3,0.9-0.5,1.8-0.5,2.7c0,4.5,3.7,8.2,8.2,8.2s8.2-3.7,8.2-8.2c0-0.9-0.2-1.8-0.5-2.7h2c1.5,0,2.8-1.2,2.8-2.8V39.3
			C68,38.6,67.7,37.9,67.2,37.4z M58.2,55.5c0,1.5-1.2,2.7-2.7,2.7s-2.7-1.2-2.7-2.7s1.2-2.7,2.7-2.7C57,52.9,58.2,54.1,58.2,55.5z
			 M62.5,40.5v6.9h-9.6V35.6h4.8L62.5,40.5z M30.1,55.5c0,1.5-1.2,2.7-2.7,2.7s-2.7-1.2-2.7-2.7s1.2-2.7,2.7-2.7
			C28.9,52.9,30.1,54.1,30.1,55.5z"/>
		<g>
			<path style="fill:#FFFFFF;" d="M30.3,9.6c-3.4-3.4-7.8-5.2-12.5-5.2l0,0C8,4.3,0.1,12.2,0,22c0,4.7,1.8,9.1,5.1,12.5
				c3.4,3.4,7.8,5.2,12.5,5.3l0,0c9.7,0,17.6-7.9,17.7-17.7C35.4,17.4,33.6,12.9,30.3,9.6z M30.3,22c0,6.9-5.6,12.6-12.6,12.7
				c-3.4,0.1-6.5-1.3-8.9-3.7s-3.7-5.6-3.7-9c0-6.9,5.7-12.6,12.6-12.6c0,0,0,0,0.1,0C24.7,9.4,30.3,15,30.3,22z"/>
			<path style="fill:#FFFFFF;" d="M23.2,20.9c-1.1-0.3-2.2-0.6-3.4-0.9c-0.3-0.1-0.3-0.1-0.3-0.4c0-2.1,0-4.2,0-6
				c0-0.4-0.1-1-0.3-1.5c-0.4-0.9-1.4-1.4-2.4-1.2C15.7,11.1,15,12,15,13.1c0,1,0,2,0,3v0.7v1.8c0,1,0,2,0,2.9
				c0,1.1,0.6,1.9,1.6,2.2c1.9,0.5,3.8,1.1,5.7,1.5c0.2,0,0.4,0.1,0.5,0.1c0.5,0,1-0.2,1.4-0.5c0.5-0.5,0.8-1.2,0.8-1.9
				C24.9,21.9,24.3,21.2,23.2,20.9z"/>
		</g>
	</g>
</g>
</svg>
