<?xml version="1.0" encoding="utf-8"?>
<!-- Generator: Adobe Illustrator 21.0.2, SVG Export Plug-In . SVG Version: 6.00 Build 0)  -->
<svg version="1.1" id="Capa_1" xmlns="http://www.w3.org/2000/svg" xmlns:xlink="http://www.w3.org/1999/xlink" x="0px" y="0px"
	 viewBox="0 0 68 68" style="enable-background:new 0 0 68 68;" xml:space="preserve">
<g>
	<path style="fill:#FF9014;" d="M39.4,51.7c-13.6,0-18.3,0-31.9,0c-1.5,0-2.8-0.3-2.8-2c-0.1-7.2,0-13.4,0-20.8
		c19.7,0,35.1,0,54.9,0c0,2.8,0,2.5,0,5.2c0,0,3-0.1,4.5,1.4c0-6.5,0-9.9,0-16.4c0-4.4-1.4-5.8-5.8-5.8c-17.6,0-35.1,0-52.7,0
		c-3.9,0-5.5,1.6-5.5,5.6c0,10.3,0,21.5,0,31.8c0,4,1.6,5.6,5.7,5.6c8.8,0,29.6,0,34.7,0C39.9,55.5,39.5,53.2,39.4,51.7z M7.2,17.6
		c13.7,0,27.4,0,41.1,0c2.7,0,4.4,0,7.1,0c4.3,0,4.7,0.5,4.1,4.9c-18.8,0-36.4,0-55.3,0C4.1,21.8,4,21.2,4,20.6
		C4,18.1,4.5,17.6,7.2,17.6z"/>
	<path style="fill:#FF9014;" d="M14.1,49.3c-7.7,0-6.9,0.7-6.9-7.1c0-3.3,0.3-3.6,3.7-3.6c2.5,0,4.9,0,7.4,0c1.8,0,2.7,0.7,2.7,2.6
		c0,1.8-0.1,3.6,0,5.4c0.1,1.9-0.8,2.7-2.6,2.7C16.9,49.3,15.5,49.3,14.1,49.3z"/>
	<path style="fill:#FF9014;" d="M47.1,40.6c-4.8,4.8-4.8,12.6,0,17.4c4.8,4.8,12.6,4.8,17.4,0c4.8-4.8,4.8-12.6,0-17.4
		C59.7,35.9,51.9,35.9,47.1,40.6z M62.5,45.2l-4.2,4.2l4.2,4.2c0.6,0.6,0.6,1.5,0,2.1c-0.6,0.6-1.5,0.6-2.1,0l-4.2-4.2l-4.2,4.2
		c-0.6,0.6-1.5,0.6-2.1,0c-0.6-0.6-0.6-1.5,0-2.1l4.2-4.2L50,45.2c-0.6-0.6-0.6-1.5,0-2.1c0.6-0.6,1.5-0.6,2.1,0l4.2,4.2l4.2-4.2
		c0.6-0.6,1.5-0.6,2.1,0C63.1,43.7,63.1,44.7,62.5,45.2z"/>
</g>
</svg>
