<svg width="54" height="50" viewBox="0 0 54 50" fill="none" xmlns="http://www.w3.org/2000/svg">
<g clip-path="url(#clip0)">
<path d="M34.04 32.56C35.92 32.56 37.76 32.56 39.64 32.56C40.6 32.56 41.24 33.16 41.24 34.04C41.24 34.92 40.6 35.52 39.64 35.52C38.72 35.52 37.76 35.52 36.84 35.52C35.92 35.52 34.96 35.52 34.04 35.52C33.12 35.52 32.48 34.92 32.48 34.04C32.44 33.16 33.08 32.56 34.04 32.56Z" fill="#FF9014"/>
<path d="M22.36 32.56C21.88 32.56 21.4 32.56 20.92 32.56C20.4 32.56 19.88 32.56 19.36 32.56C18.52 32.6 17.96 33.2 17.92 34C17.92 34.84 18.52 35.48 19.36 35.52C20.36 35.56 21.36 35.52 22.36 35.52C23.2 35.52 23.8 34.88 23.8 34.04C23.84 33.2 23.24 32.56 22.36 32.56Z" fill="#FF9014"/>
<path d="M13.72 32.56C12.72 32.52 11.72 32.56 10.72 32.56C9.87998 32.56 9.27998 33.2 9.27998 34.04C9.27998 34.88 9.87998 35.48 10.72 35.52C11.2 35.52 11.68 35.52 12.16 35.52C12.68 35.52 13.2 35.52 13.72 35.52C14.56 35.48 15.12 34.88 15.16 34.08C15.12 33.24 14.52 32.56 13.72 32.56Z" fill="#FF9014"/>
<path d="M22.36 26.76C21.4 26.76 20.4 26.76 19.44 26.76C18.6 26.76 17.96 27.4 17.96 28.24C17.96 29.08 18.56 29.72 19.44 29.72C19.92 29.72 20.4 29.72 20.88 29.72C21.36 29.72 21.84 29.72 22.32 29.72C23.2 29.68 23.8 29.08 23.8 28.24C23.84 27.4 23.24 26.76 22.36 26.76Z" fill="#FF9014"/>
<path d="M10.72 29.72C11.2 29.72 11.72 29.72 12.2 29.72C12.72 29.72 13.24 29.72 13.76 29.72C14.56 29.68 15.16 29.04 15.16 28.24C15.16 27.44 14.56 26.8 13.76 26.76C12.76 26.72 11.72 26.72 10.72 26.76C9.91999 26.76 9.31999 27.4 9.27999 28.24C9.23999 29.04 9.87999 29.68 10.72 29.72Z" fill="#FF9014"/>
<path d="M19.4 23.92C19.88 23.92 20.4 23.92 20.88 23.92C21.36 23.92 21.88 23.92 22.36 23.92C23.2 23.88 23.8 23.28 23.8 22.44C23.8 21.6 23.2 20.96 22.36 20.96C21.36 20.96 20.36 20.96 19.36 20.96C18.52 20.96 17.92 21.64 17.92 22.48C17.96 23.28 18.56 23.88 19.4 23.92Z" fill="#FF9014"/>
<path d="M10.76 23.92C11.24 23.92 11.72 23.92 12.2 23.92C12.68 23.92 13.16 23.92 13.64 23.92C14.52 23.88 15.12 23.28 15.12 22.44C15.12 21.6 14.52 21 13.64 20.96C12.68 20.96 11.68 20.96 10.72 20.96C9.87999 20.96 9.27999 21.6 9.23999 22.44C9.23999 23.28 9.87999 23.88 10.76 23.92Z" fill="#FF9014"/>
<path d="M22.4 15.16C21.92 15.16 21.4 15.16 20.92 15.16C20.4 15.16 19.88 15.16 19.36 15.16C18.56 15.2 17.96 15.84 17.96 16.64C17.96 17.44 18.56 18.08 19.36 18.12C20.36 18.16 21.4 18.16 22.4 18.12C23.24 18.12 23.8 17.48 23.8 16.68C23.84 15.84 23.24 15.2 22.4 15.16Z" fill="#FF9014"/>
<path d="M10.68 18.12C11.16 18.12 11.68 18.12 12.16 18.12C12.68 18.12 13.2 18.12 13.72 18.12C14.56 18.08 15.12 17.48 15.12 16.64C15.12 15.84 14.52 15.16 13.72 15.16C12.68 15.12 11.68 15.12 10.64 15.16C9.83999 15.16 9.23999 15.84 9.23999 16.64C9.27999 17.44 9.87999 18.08 10.68 18.12Z" fill="#FF9014"/>
<path d="M34.04 35.52C34.96 35.52 35.92 35.52 36.84 35.52C37.76 35.52 38.72 35.52 39.64 35.52C40.6 35.52 41.24 34.92 41.24 34.04C41.24 33.16 40.6 32.56 39.64 32.56C37.76 32.56 35.92 32.56 34.04 32.56C33.08 32.56 32.44 33.16 32.44 34.08C32.48 34.92 33.08 35.52 34.04 35.52Z" fill="#FF9014"/>
<path d="M34 26.76C33.08 26.76 32.44 27.36 32.44 28.24C32.44 29.12 33.08 29.72 34 29.72C34.92 29.72 35.88 29.72 36.8 29.72C37.12 29.72 37.44 29.72 37.72 29.72C36.84 28.84 36.16 27.84 35.68 26.76C35.12 26.76 34.56 26.76 34 26.76Z" fill="#FF9014"/>
<path d="M50 48.04C49.64 47.32 49.08 47 48.24 47.04C46.84 47.04 47.04 47.24 47.04 45.84C47.04 41.44 47.04 37.04 47.04 32.64C46.04 32.84 45.04 32.88 44.08 32.76C44.08 37.28 44.08 41.8 44.08 46.32C44.08 47.04 44.08 47.04 43.36 47.04C42.88 47.04 42.36 47 41.88 47.04C41.4 47.08 41.24 46.92 41.28 46.44C41.32 44.32 41.28 42.2 41.28 40.08C41.28 38.92 40.72 38.36 39.56 38.36C37.76 38.36 35.96 38.36 34.16 38.36C33.08 38.36 32.52 38.92 32.52 40.04C32.52 42.16 32.52 44.24 32.52 46.36C32.52 47.04 32.52 47.04 31.8 47.04C31.32 47.04 30.84 47.04 30.36 47.04C29.72 47.04 29.68 47.04 29.68 46.4C29.68 44.12 29.68 41.84 29.68 39.6C29.68 37.36 29.68 35.08 29.68 32.84C29.68 28.32 29.68 23.84 29.68 19.32C29.68 18.76 29.68 18.76 30.2 18.92C31.8 19.44 33.36 19.96 34.96 20.52C35.16 19.52 35.48 18.56 35.96 17.68C34.08 17.04 32.2 16.44 30.36 15.8C29.76 15.6 29.6 15.36 29.6 14.8C29.64 13.52 29.6 12.24 29.6 11C29.6 9.87998 29.32 9.47998 28.28 9.07998C23.44 7.27998 18.64 5.47998 13.8 3.63998C11 2.59998 8.19998 1.51998 5.39998 0.479984C4.99998 0.359984 4.79998 0.359984 4.43998 0.479984C3.71998 0.879984 3.43998 1.47998 3.43998 2.27998C3.43998 16.92 3.43998 31.6 3.43998 46.24C3.43998 47 3.43998 47 2.67998 47.04C2.51998 47.04 2.39998 47.04 2.23998 47.04C1.43998 46.96 0.839984 47.32 0.479984 48.04C0.359984 48.4 0.359984 48.72 0.479984 49C0.839984 49.76 1.39998 50 2.23998 50C17.56 50 32.88 50 48.2 50C49 50 49.6 49.72 49.96 49C50.12 48.72 50.12 48.36 50 48.04ZM14.6 47.04C13.96 47.04 13.36 47.04 12.72 47.04C12.4 47.04 12.24 46.92 12.24 46.6C12.24 45 12.24 43.36 12.24 41.76C12.24 41.44 12.36 41.32 12.68 41.32C13.32 41.32 13.96 41.32 14.6 41.32C14.92 41.32 15.08 41.44 15.08 41.76C15.08 42.56 15.08 43.32 15.08 44.12C15.08 44.92 15.08 45.72 15.08 46.52C15.08 46.92 14.96 47.04 14.6 47.04ZM20.84 44.2C20.84 44.96 20.84 45.76 20.84 46.52C20.84 46.88 20.72 47.04 20.32 47.04C19.68 47.04 19.08 47.04 18.44 47.04C18.12 47.04 18 46.92 18 46.6C18 45 18 43.4 18 41.76C18 41.44 18.12 41.28 18.44 41.28C19.08 41.28 19.68 41.28 20.32 41.28C20.68 41.28 20.8 41.4 20.8 41.76C20.84 42.6 20.84 43.4 20.84 44.2ZM26.64 46.28C26.64 47.04 26.64 47.04 25.84 47.04C25.36 47.04 24.84 47 24.36 47.04C23.92 47.08 23.8 46.88 23.8 46.48C23.8 44.36 23.8 42.24 23.8 40.12C23.8 38.88 23.28 38.36 22.04 38.36C18.32 38.36 14.64 38.36 10.92 38.36C9.79998 38.36 9.23998 38.92 9.23998 40.04C9.23998 42.16 9.23998 44.28 9.23998 46.4C9.23998 47 9.23998 47.04 8.59998 47.04C8.07998 47.04 7.51998 47 6.99998 47.04C6.51998 47.08 6.39998 46.92 6.39998 46.44C6.39998 43.12 6.39998 39.84 6.39998 36.52C6.39998 32.84 6.39998 29.16 6.39998 25.52C6.39998 18.6 6.39998 11.68 6.39998 4.75998C6.39998 4.11998 6.39998 4.11998 6.99998 4.35998C13.36 6.71998 19.68 9.07998 26 11.44C26.52 11.64 26.68 11.88 26.68 12.4C26.64 23.72 26.64 35 26.64 46.28ZM38.24 44.2C38.24 44.96 38.24 45.76 38.24 46.52C38.24 46.92 38.12 47.08 37.72 47.08C37.12 47.04 36.52 47.08 35.92 47.08C35.56 47.08 35.4 46.96 35.4 46.56C35.4 45 35.4 43.4 35.4 41.84C35.4 41.48 35.52 41.32 35.88 41.36C36.52 41.36 37.12 41.36 37.76 41.36C38.12 41.36 38.24 41.52 38.24 41.84C38.24 42.6 38.24 43.4 38.24 44.2Z" fill="#FF9014"/>
<path d="M39.48 16.8C36.4 19.88 36.4 24.92 39.48 28.04C42.56 31.12 47.6 31.12 50.72 28.04C53.84 24.96 53.8 19.92 50.72 16.8C47.6 13.72 42.6 13.72 39.48 16.8ZM49.48 19.8L46.76 22.52L49.48 25.24C49.84 25.6 49.84 26.2 49.48 26.6C49.12 27 48.52 26.96 48.12 26.6L45.4 23.88L42.68 26.6C42.32 26.96 41.72 26.96 41.32 26.6C40.92 26.24 40.96 25.64 41.32 25.24L44.04 22.52L41.32 19.8C40.96 19.44 40.96 18.84 41.32 18.44C41.68 18.08 42.28 18.08 42.68 18.44L45.4 21.16L48.12 18.44C48.48 18.08 49.08 18.08 49.48 18.44C49.84 18.8 49.84 19.4 49.48 19.8Z" fill="#FF9014"/>
</g>
<defs>
<clipPath id="clip0">
<rect width="53.2" height="50" fill="white"/>
</clipPath>
</defs>
</svg>
