<?xml version="1.0" encoding="utf-8"?>
<!-- Generator: Adobe Illustrator 21.0.2, SVG Export Plug-In . SVG Version: 6.00 Build 0)  -->
<svg version="1.1" id="Capa_1" xmlns="http://www.w3.org/2000/svg" xmlns:xlink="http://www.w3.org/1999/xlink" x="0px" y="0px"
	 viewBox="0 0 68 68" style="enable-background:new 0 0 68 68;" xml:space="preserve">
<g>
	<path style="fill:#FF9029;" d="M34,68c-0.5,0-1.1-0.2-1.6-0.5C31.3,66.8,5.7,49.5,5.7,28.3c0-7.6,2.9-14.7,8.3-20
		C19.3,2.9,26.4,0,34,0s14.7,2.9,20,8.3c5.4,5.4,8.3,12.5,8.3,20c0,21.1-25.7,38.5-26.8,39.2C35.1,67.9,34.6,68,34,68z M34,5.7
		C28,5.7,22.3,8,18,12.3c-4.3,4.3-6.6,10-6.6,16c0,15.3,17.3,29.4,22.7,33.4c5.4-4,22.7-18,22.7-33.4c0-6.1-2.4-11.8-6.6-16
		C45.8,8,40.1,5.7,34,5.7z"/>
	<path style="fill:#FF9029;" d="M34,39.7c-6.3,0-11.3-5.1-11.3-11.3S27.8,17,34,17s11.3,5.1,11.3,11.3S40.3,39.7,34,39.7z M34,22.7
		c-3.1,0-5.7,2.5-5.7,5.7S30.9,34,34,34s5.7-2.5,5.7-5.7S37.1,22.7,34,22.7z"/>
</g>
</svg>
